Coordinates
version=1
nRows=16
nColumns=22
inDegrees=yes

Units are S.I. units (second, meters, Newtons, ...)
If the header above contains a line with 'inDegrees', this indicates whether rotational values are in degrees (yes) or radians (no).

endheader
time	pelvis_tilt	pelvis_list	pelvis_rotation	pelvis_tx	pelvis_ty	pelvis_tz	hip_flexion_r	hip_adduction_r	hip_rotation_r	knee_angle_r	ankle_angle_r	subtalar_angle_r	hip_flexion_l	hip_adduction_l	hip_rotation_l	knee_angle_l	ankle_angle_l	subtalar_angle_l	lumbar_extension	lumbar_bending	lumbar_rotation
      3.61000000	     -0.50543489	      3.79554288	    174.20683576	      0.16983688	      1.05787755	     -0.57100247	     -8.13906854	      2.75141380	     -7.77545897	    -12.70888930	     17.98592356	      1.23564992	     27.23649610	     -3.49401520	    -18.17896354	    -23.75463023	      6.09569214	     -7.00811280	     -6.07528284	     -2.26155971	      0.74871582
      3.62000000	     -0.36680544	      3.50846869	    174.42538555	      0.16128238	      1.05630126	     -0.57043336	     -8.24020030	      2.41058960	     -8.13461354	    -13.15173972	     18.35031029	      1.31644588	     26.97620142	     -3.10566898	    -19.22545803	    -20.94083422	      6.23007449	     -6.71089042	     -5.86045705	     -2.54791401	      0.72609777
      3.63000000	     -0.22529305	      3.22014566	    174.63415511	      0.15258497	      1.05474869	     -0.56973442	     -8.33223203	      2.05200329	     -8.46046728	    -13.62603540	     18.66491136	      1.47007071	     26.67534207	     -2.65706374	    -20.02594383	    -18.25063630	      6.44497917	     -6.38421600	     -5.63237349	     -2.83650437	      0.68030628
      3.64000000	     -0.08824039	      2.95480866	    174.82082408	      0.14373268	      1.05323214	     -0.56895013	     -8.41693541	      1.69577744	     -8.75186950	    -14.14966800	     18.93476344	      1.68973013	     26.33803305	     -2.20011243	    -20.55370860	    -15.76259247	      6.68563496	     -6.08147116	     -5.39940866	     -3.10541879	      0.66301873
      3.65000000	      0.03033398	      2.71522881	    174.99857736	      0.13464096	      1.05177619	     -0.56810644	     -8.53884663	      1.35289994	     -8.96088817	    -14.67641787	     19.13405439	      1.99972621	     25.97191691	     -1.76530123	    -20.84178112	    -13.58419732	      6.95693733	     -5.82784951	     -5.16569349	     -3.35482267	      0.63504213
      3.66000000	      0.12114104	      2.51421848	    175.16179086	      0.12529705	      1.05039411	     -0.56722926	     -8.70073081	      1.03337644	     -9.09555868	    -15.22152880	     19.26295501	      2.38981387	     25.60410924	     -1.40164056	    -20.97306833	    -11.84021382	      7.21852952	     -5.65599743	     -4.94051075	     -3.57383858	      0.63671885
      3.67000000	      0.17355284	      2.34673443	    175.32102223	      0.11569398	      1.04910591	     -0.56632210	     -8.91620690	      0.73685302	     -9.13106536	    -15.78076346	     19.30974603	      2.88471057	     25.26250856	     -1.12474300	    -21.03886931	    -10.63891460	      7.46200764	     -5.57843665	     -4.73762442	     -3.77307075	      0.64332400
      3.68000000	      0.19615650	      2.21064552	    175.48644180	      0.10583028	      1.04790521	     -0.56533873	     -9.17284669	      0.46257021	     -9.08280211	    -16.35859888	     19.27326108	      3.46751111	     24.98764335	     -0.94024619	    -21.11840722	    -10.04755084	      7.65596075	     -5.61938980	     -4.54681575	     -3.94742064	      0.66576258
      3.69000000	      0.19117149	      2.08864007	    175.66649449	      0.09570582	      1.04679714	     -0.56426632	     -9.46244663	      0.19810064	     -8.94710107	    -16.96163802	     19.14886893	      4.12669985	     24.78784111	     -0.82683608	    -21.26315732	    -10.05496732	      7.78120252	     -5.79284031	     -4.36651860	     -4.11868268	      0.69534962
      3.70000000	      0.15598120	      1.97265445	    175.86770971	      0.08532790	      1.04580316	     -0.56306409	     -9.77886851	     -0.06311119	     -8.74211812	    -17.60165722	     18.93295054	      4.86045096	     24.64547980	     -0.76287738	    -21.50891730	    -10.57935561	      7.79203533	     -6.10025214	     -4.20452507	     -4.29196848	      0.73377979
      3.71000000	      0.09567648	      1.84588741	    176.09533600	      0.07470365	      1.04494621	     -0.56170892	    -10.10516569	     -0.33452434	     -8.47873286	    -18.29499356	     18.62390638	      5.66145136	     24.52252170	     -0.70651536	    -21.83094286	    -11.45539541	      7.65345440	     -6.52926472	     -4.05669720	     -4.48606664	      0.78263467
      3.72000000	      0.01732651	      1.68588363	    176.34827980	      0.06384985	      1.04426305	     -0.56016179	    -10.41665944	     -0.63940991	     -8.17698615	    -19.06490371	     18.20467709	      6.51930486	     24.38105950	     -0.61093106	    -22.22083066	    -12.49943481	      7.36033028	     -7.05368882	     -3.91730006	     -4.72087121	      0.84252506
      3.73000000	     -0.06629588	      1.47086480	    176.61951394	      0.05281562	      1.04379739	     -0.55842090	    -10.68094062	     -0.99705490	     -7.83460990	    -19.93425193	     17.68044711	      7.41351802	     24.19675105	     -0.43690590	    -22.66669685	    -13.54200647	      6.91514600	     -7.61736077	     -3.77704035	     -5.02151712	      0.92683630
      3.74000000	     -0.13949167	      1.18619948	    176.92711449	      0.04164399	      1.04359310	     -0.55640918	    -10.87023666	     -1.41967175	     -7.48163820	    -20.91443026	     16.99815256	      8.35758787	     23.95141492	     -0.13301237	    -23.07049372	    -14.43343852	      6.35258256	     -8.18976916	     -3.62392074	     -5.39502344	      1.00999515
      3.75000000	     -0.19218573	      0.83370665	    177.27642617	      0.03040451	      1.04366681	     -0.55411408	    -10.95449575	     -1.90420182	     -7.13396741	    -22.03449039	     16.16244851	      9.35584752	     23.64523026	      0.31752322	    -23.34765808	    -15.10632978	      5.72806826	     -8.72936253	     -3.45561772	     -5.84049264	      1.08542279
      3.76000000	     -0.21211938	      0.42927574	    177.67482976	      0.01914947	      1.04400633	     -0.55149213	    -10.91228599	     -2.43309839	     -6.79092065	    -23.30229524	     15.14644963	     10.38644794	     23.29147634	      0.91241557	    -23.41671139	    -15.55177419	      5.08213775	     -9.20456839	     -3.26483746	     -6.33113176	      1.13631112
